<svg id="Capa_1" data-name="Capa 1" xmlns="http://www.w3.org/2000/svg" xmlns:xlink="http://www.w3.org/1999/xlink" viewBox="0 0 100 100"><defs><style>.cls-1{fill:url(#linear-gradient);}.cls-2{fill:#fff;}.cls-3{fill:#4682ff;}</style><linearGradient id="linear-gradient" x1="50" y1="100" x2="50" gradientUnits="userSpaceOnUse"><stop offset="0" stop-color="#4646ff"/><stop offset="1" stop-color="#82c8ff"/></linearGradient></defs><title>icon</title><path class="cls-1" d="M82,100H18a8,8,0,0,1-8-8V8a8,8,0,0,1,8-8H62L90,28V92A8,8,0,0,1,82,100Z"/><path class="cls-2" d="M68,47A18,18,0,1,0,50,65,18,18,0,0,0,68,47ZM41,47a9,9,0,1,1,9,9A9,9,0,0,1,41,47Z"/><path class="cls-2" d="M36.5,65h27a0,0,0,0,1,0,0v7a2,2,0,0,1-2,2h-25a0,0,0,0,1,0,0V65A0,0,0,0,1,36.5,65Z" transform="translate(119.5 19.5) rotate(90)"/><path class="cls-2" d="M50.5,74h11a2,2,0,0,1,2,2v5a2,2,0,0,1-2,2h-11a0,0,0,0,1,0,0V74A0,0,0,0,1,50.5,74Z"/><path class="cls-3" d="M62,0,90,28H70a8,8,0,0,1-8-8Z"/></svg>